<svg xmlns="http://www.w3.org/2000/svg" width="213" height="60" viewBox="0 0 213 60">
    <defs>
        <style>
            .cls-3{fill:#333}
        </style>
    </defs>
    <g id="그룹_352" transform="translate(7300 844)">
        <g id="사각형_1498" fill="none" stroke="#333" transform="translate(-7300 -844)">
            <rect width="213" height="60" stroke="none" rx="30"/>
            <rect width="212" height="59" x=".5" y=".5" rx="29.5"/>
        </g>
        <g id="그룹_49" transform="translate(-3 1)">
            <text id="Google_Play" fill="#333" font-family="ProductSans-Regular, Product Sans" font-size="19px" transform="translate(-7217 -808)">
                <tspan x="0" y="0">Google Play</tspan>
            </text>
            <g id="그룹_48" transform="translate(-6687.979 -636.198)">
                <path id="패스_390" d="M-575.021-151.827V-182.9l15.536 15.536z" class="cls-3" transform="translate(0 -11.391)"/>
                <path id="패스_391" d="M-563.208-195.8a5.71 5.71 0 0 1 1.24.428q5.624 3.527 11.22 7.1 3.284 2.084 6.563 4.174c.145.092.286.19.325.216l-3.665 3.863L-563.2-195.7z" class="cls-3" transform="translate(-10.428)"/>
                <path id="패스_392" d="M-548.412-38.788l3.641 3.857c-1.167.745-2.422 1.551-3.681 2.35q-7.134 4.528-14.277 9.041a9.374 9.374 0 0 1-1.536.6z" class="cls-3" transform="translate(-9.496 -138.603)"/>
                <path id="패스_393" d="M-420.682-81.14l4.333-4.113c1.371.89 2.852 1.791 4.266 2.789a1.653 1.653 0 0 1-.14 2.811c-1.375.925-2.784 1.8-4.142 2.669z" class="cls-3" transform="translate(-136.242 -97.586)"/>
            </g>
        </g>
    </g>
</svg>
