<svg xmlns="http://www.w3.org/2000/svg" width="213" height="60" viewBox="0 0 213 60">
    <defs>
        <style>
            .cls-1{fill:#333}
        </style>
    </defs>
    <g id="그룹_351" transform="translate(7062 844)">
        <g id="그룹_47" transform="translate(3 9.167)">
            <g id="그룹_45" transform="translate(950 332.479)">
                <g id="그룹_44" transform="translate(-7932 -1162)">
                    <path id="Fill-4" d="M-2847.653 365.068h-2.637l-1.442-4.543h-5.026l-1.374 4.543h-2.569l4.976-15.468h3.076l4.995 15.468zm-4.518-6.456l-1.306-4.029c-.136-.421-.4-1.38-.774-2.909h-.05c-.155.662-.4 1.634-.73 2.909l-1.287 4.029z" class="cls-1" transform="translate(2860.7 -349.377)"/>
                    <path id="Fill-5" d="M-2606.061 421.276a6.3 6.3 0 0 1-1.547 4.494 4.518 4.518 0 0 1-3.435 1.467 3.443 3.443 0 0 1-3.181-1.578v5.855h-2.482v-12.02c0-1.195-.031-2.408-.093-3.664h2.179l.136 1.77h.043a4.138 4.138 0 0 1 3.757-2 4.141 4.141 0 0 1 3.287 1.56 6.078 6.078 0 0 1 1.337 4.116zm-2.525.08a4.569 4.569 0 0 0-.73-2.68 2.546 2.546 0 0 0-2.16-1.1 2.64 2.64 0 0 0-1.665.607 2.773 2.773 0 0 0-.972 1.591 3.361 3.361 0 0 0-.118.755v1.863a3.026 3.026 0 0 0 .743 2.055 2.458 2.458 0 0 0 1.937.836 2.557 2.557 0 0 0 2.179-1.077 4.7 4.7 0 0 0 .786-2.847z" class="cls-1" transform="translate(2631.896 -411.292)"/>
                    <path id="Fill-6" d="M-2398.961 421.276a6.3 6.3 0 0 1-1.547 4.494 4.517 4.517 0 0 1-3.435 1.467 3.443 3.443 0 0 1-3.181-1.578v5.855h-2.482v-12.02c0-1.195-.031-2.408-.093-3.664h2.179l.136 1.77h.043a4.138 4.138 0 0 1 3.757-2 4.141 4.141 0 0 1 3.287 1.56 6.078 6.078 0 0 1 1.337 4.116zm-2.525.08a4.567 4.567 0 0 0-.73-2.68 2.546 2.546 0 0 0-2.16-1.1 2.64 2.64 0 0 0-1.665.607 2.839 2.839 0 0 0-.972 1.591 3.375 3.375 0 0 0-.118.755v1.863a3.027 3.027 0 0 0 .743 2.055 2.458 2.458 0 0 0 1.938.836 2.542 2.542 0 0 0 2.179-1.077 4.661 4.661 0 0 0 .786-2.847z" class="cls-1" transform="translate(2437.615 -411.292)"/>
                    <path id="Fill-7" d="M-2149.619 357.352a4.117 4.117 0 0 1-1.374 3.212 6.067 6.067 0 0 1-4.209 1.349 7.31 7.31 0 0 1-4-.966l.576-2.061a6.976 6.976 0 0 0 3.584.966 3.359 3.359 0 0 0 2.179-.631 2.047 2.047 0 0 0 .786-1.684 2.181 2.181 0 0 0-.638-1.578 5.952 5.952 0 0 0-2.135-1.195c-2.736-1.015-4.085-2.494-4.085-4.432a3.925 3.925 0 0 1 1.436-3.12 5.7 5.7 0 0 1 3.8-1.213 7.522 7.522 0 0 1 3.51.73l-.631 2.012a6.189 6.189 0 0 0-2.977-.712 3.125 3.125 0 0 0-2.055.638 1.864 1.864 0 0 0-.619 1.4 1.891 1.891 0 0 0 .712 1.51 7.973 7.973 0 0 0 2.253 1.195 7.537 7.537 0 0 1 2.934 1.888 3.91 3.91 0 0 1 .953 2.686" class="cls-1" transform="translate(2202.619 -346)"/>
                    <path id="Fill-8" d="M-1974.71 379.042h-2.736v5.416c0 1.374.483 2.061 1.442 2.061a4.581 4.581 0 0 0 1.1-.118l.074 1.888a5.724 5.724 0 0 1-1.925.272 2.965 2.965 0 0 1-2.3-.9 4.36 4.36 0 0 1-.829-3.008v-5.626h-1.622v-1.851h1.622v-2.046l2.432-.73v2.773h2.736v1.869" class="cls-1" transform="translate(2035.918 -372.642)"/>
                    <path id="Fill-9" d="M-1838.676 421.5a6.148 6.148 0 0 1-1.467 4.221 5.247 5.247 0 0 1-4.085 1.7 5.039 5.039 0 0 1-3.918-1.622 5.9 5.9 0 0 1-1.454-4.1 6.067 6.067 0 0 1 1.5-4.24 5.218 5.218 0 0 1 4.054-1.653 5.1 5.1 0 0 1 3.949 1.634 5.789 5.789 0 0 1 1.424 4.066zm-2.569.056a5.016 5.016 0 0 0-.662-2.631 2.458 2.458 0 0 0-2.228-1.331 2.47 2.47 0 0 0-2.272 1.331 4.993 4.993 0 0 0-.662 2.68 4.985 4.985 0 0 0 .662 2.631 2.5 2.5 0 0 0 2.253 1.331 2.5 2.5 0 0 0 2.228-1.349 5.065 5.065 0 0 0 .682-2.662z" class="cls-1" transform="translate(1912.182 -411.48)"/>
                    <path id="Fill-10" d="M-1633.615 418.008a4.452 4.452 0 0 0-.786-.062 2.347 2.347 0 0 0-2.024.984 3.731 3.731 0 0 0-.619 2.2v5.855h-2.482v-7.644c0-1.287-.019-2.463-.074-3.509h2.16l.093 2.135h.074a3.777 3.777 0 0 1 1.238-1.77 3.025 3.025 0 0 1 1.789-.594 4.552 4.552 0 0 1 .619.043l.012 2.364" class="cls-1" transform="translate(1715.18 -411.292)"/>
                    <path id="Fill-11" d="M-1513.991 420.311a5.747 5.747 0 0 1-.093 1.12h-7.434a3.243 3.243 0 0 0 1.077 2.525 3.72 3.72 0 0 0 2.432.774 8.338 8.338 0 0 0 3.009-.53l.39 1.714a9.349 9.349 0 0 1-3.738.693 5.418 5.418 0 0 1-4.073-1.529 5.651 5.651 0 0 1-1.479-4.1 6.382 6.382 0 0 1 1.38-4.2 4.739 4.739 0 0 1 3.893-1.789 4.137 4.137 0 0 1 3.646 1.789 6.144 6.144 0 0 1 .99 3.522zm-2.37-.638a3.368 3.368 0 0 0-.483-1.906 2.158 2.158 0 0 0-1.968-1.04 2.355 2.355 0 0 0-1.968 1 3.667 3.667 0 0 0-.73 1.925l5.15.019z" class="cls-1" transform="translate(1606.641 -410.729)"/>
                </g>
            </g>
            <g id="그룹_46" transform="translate(11 -3)">
                <g id="icon" transform="translate(-3620.717 -1020.667)">
                    <path id="Fill-2" d="M-3394.245 308.865a7.735 7.735 0 0 1 3.667-6.471 7.93 7.93 0 0 0-6.216-3.363c-2.612-.276-5.154 1.572-6.478 1.572-1.353 0-3.413-1.536-5.622-1.494a8.27 8.27 0 0 0-6.96 4.255c-3.009 5.211-.765 12.879 2.117 17.091 1.451 2.06 3.129 4.376 5.345 4.291 2.16-.085 2.974-1.381 5.572-1.381s3.342 1.381 5.593 1.331c2.322-.035 3.773-2.074 5.175-4.156a16.765 16.765 0 0 0 2.358-4.815 7.517 7.517 0 0 1-4.553-6.861" class="cls-1" transform="translate(0 -107.325)"/>
                    <path id="Fill-3" d="M-3218.644 188.938a7.588 7.588 0 0 0 1.735-5.438 7.715 7.715 0 0 0-5 2.584 7.271 7.271 0 0 0-1.784 5.232 6.376 6.376 0 0 0 5.048-2.379" class="cls-1" transform="translate(-179.849)"/>
                </g>
            </g>
        </g>
        <g id="사각형_1497" fill="none" stroke="#333" transform="translate(-7062 -844)">
            <rect width="213" height="60" stroke="none" rx="30"/>
            <rect width="212" height="59" x=".5" y=".5" rx="29.5"/>
        </g>
    </g>
</svg>
